# xmcd CD database file
#
# Track frame offsets:
#	150
#	12515
#	26034
#	40074
#	50615
#	62856
#	74592
#	88650
#	100701
#	115615
#	125296
#	138551
#	155024
#	167751
#	184986
#	196092
#
# Disc length: 2874 seconds
#
# Revision: 1
# Processed by: cddbd v1.5.1PL2 Copyright (c) Steve Scherf et al.
# Submitted via: CDex 1.51
#
DISCID=e00b3810
DTITLE=Ferlin Husky - Don't Fall Asleep At The Wheel
DYEAR=1999
DGENRE=Country
TTITLE0=Don't Fall Asleep At The Wheel
TTITLE1=Baby
TTITLE2=Blues In My Hart
TTITLE3=Gone
TTITLE4=Freight Thiner Fever
TTITLE5=If I Can't Have All Of You
TTITLE6=Hello I'm A Truck
TTITLE7=Me And Old Crazy Bill
TTITLE8=Little Tom
TTITLE9=Lookin' Thru A Window
TTITLE10=Good Ole Country Music Is Here
TTITLE11=Giddi-Up Go
TTITLE12=Drunkin' Driver
TTITLE13=Convoy
TTITLE14=I Feel Better All Over
TTITLE15=Little Joe
EXTD=YEAR: 1999
EXTT0=
EXTT1=
EXTT2=
EXTT3=
EXTT4=
EXTT5=
EXTT6=
EXTT7=
EXTT8=
EXTT9=
EXTT10=
EXTT11=
EXTT12=
EXTT13=
EXTT14=
EXTT15=
PLAYORDER=
